<svg xmlns="http://www.w3.org/2000/svg" xmlns:xlink="http://www.w3.org/1999/xlink" id="Layer_1" x="0" y="0" version="1.1" viewBox="0 0 110 70" xml:space="preserve" style="enable-background:new 0 0 110 70"><style type="text/css">.st0{fill:none;stroke-miterlimit:10}.st0,.st1{stroke:#212a32}.st1,.st2{stroke-miterlimit:10}.st1{fill:#fff}.st2{fill:none;stroke:#ff7300}</style><g><path d="M57.7,69.9C66.5,60.9,72,48.6,72,35S66.5,9.1,57.7,0.1" class="st0"/><g><g><g><circle cx="42.1" cy="12.1" r="4.4" class="st0"/><path d="M41.3,7.8c0,0,0.2,1.6,0.8,2.5c1.6,2.1,4.4,1.8,4.4,1.8" class="st0"/><path d="M41.3,9.7c0,0-0.3,0.7-1.6,1.5c-1,0.6-2.1,0.2-2.1,0.2" class="st0"/><path d="M34.9,24.9c0,1.2,3.2,2.1,7.2,2.1c2,0,3.8-0.2,5.1-0.6" class="st0"/><path d="M49.1,22.6c-0.6-3.6-2.5-5.5-7-5.5c-5.2,0-7,2.8-7.2,7.7v0.1" class="st0"/></g><g><circle cx="53.1" cy="14.1" r="5.5" class="st1"/><path d="M52.1,8.8c0,0,0.2,2,1,3.1c2,2.6,5.5,2.3,5.5,2.3" class="st1"/><path d="M52.1,11.2c0,0-0.3,0.9-2,1.9c-1.3,0.8-2.6,0.2-2.6,0.2" class="st1"/><path d="M44.2,30c0,1.5,4,2.7,8.9,2.7S62,31.4,62,30c0-0.1,0-0.1,0-0.2" class="st1"/><path d="M62,29.8c-0.2-6.1-2.4-9.5-8.9-9.5c-6.4,0-8.7,3.5-8.9,9.5c0,0.1,0,0.1,0,0.2" class="st1"/></g></g><line x1="75.2" x2="22.9" y1="50" y2="36.6" class="st2"/><line x1="32.7" x2="22.9" y1="27.6" y2="30.4" class="st2"/><g><g><circle cx="84.8" cy="41.8" r="4.4" class="st0"/><path d="M84,37.5c0,0,0.2,1.6,0.8,2.5c1.6,2.1,4.4,1.8,4.4,1.8" class="st0"/><path d="M84,39.4c0,0-0.3,0.7-1.6,1.5c-1,0.6-2.1,0.2-2.1,0.2" class="st0"/><path d="M77.6,54.6c0,1.2,3.2,2.1,7.2,2.1c2,0,3.8-0.2,5.1-0.6" class="st0"/><path d="M91.7,52.3c-0.6-3.6-2.5-5.5-7-5.5c-5.2,0-7,2.8-7.2,7.7v0.1" class="st0"/></g><g><circle cx="95.8" cy="43.8" r="5.5" class="st1"/><path d="M94.8,38.4c0,0,0.2,2,1,3.1c2,2.6,5.5,2.3,5.5,2.3" class="st1"/><path d="M94.8,40.8c0,0-0.3,0.9-2,1.9c-1.3,0.8-2.6,0.2-2.6,0.2" class="st1"/><path d="M86.9,59.6c0,1.5,4,2.7,8.9,2.7s8.9-1.2,8.9-2.7c0-0.1,0-0.1,0-0.2" class="st1"/><path d="M104.7,59.5c-0.2-6.1-2.4-9.5-8.9-9.5c-6.4,0-8.7,3.5-8.9,9.5c0,0.1,0,0.1,0,0.2" class="st1"/></g></g><circle cx="13.3" cy="33.6" r="10" class="st0"/></g></g></svg>