<svg xmlns="http://www.w3.org/2000/svg" xmlns:xlink="http://www.w3.org/1999/xlink" id="Layer_1" x="0" y="0" version="1.1" viewBox="0 0 110 70" xml:space="preserve" style="enable-background:new 0 0 110 70"><style type="text/css">.st0{fill-rule:evenodd;clip-rule:evenodd;fill:none;stroke:#212a32}.st0,.st1,.st2,.st3{stroke-miterlimit:10}.st1{fill-rule:evenodd;clip-rule:evenodd;fill:none;stroke:#ff7300}.st2,.st3{fill:#fff;stroke:#212a32}.st3{stroke:#ff7300}</style><g><path d="M70.9,24.1c5.8,0,11.6-0.1,17.4,0c1.9,0,2.6-0.7,2.5-2.8c-0.1-1.7-0.1-3.3,0-5c0.1-2.1-0.7-2.9-2.5-2.8 c-4.8,0.1-27.9,0-34.6,0c-2.3,0-2.6,0.3-2.6,2.9c0,1.6,0,3.2,0,4.8c0,2.6,0.3,2.9,2.6,2.9C59.4,24.1,65.2,24.1,70.9,24.1z M84.4,20.4c0-1.1,0-2,0-3c1,0,1.9,0,2.9,0c0,1.1,0,2,0,3C86.4,20.4,85.5,20.4,84.4,20.4z" class="st0"/><path d="M71.1,45.1c5.8,0,11.6-0.1,17.4,0c1.8,0,2.5-0.7,2.4-2.7c-0.1-1.8-0.1-3.6,0-5.4c0-1.6-0.5-2.4-2.1-2.4 c-11.9,0-23.7,0-35.6,0c-1.5,0-2.1,0.7-2.1,2.3c0,2,0,3.9,0,5.9c0,1.7,0.7,2.3,2.1,2.3C59.2,45.1,65.1,45.1,71.1,45.1 C71.1,45.1,71.1,45.1,71.1,45.1z M87.3,41.4c-1,0-1.9,0-2.9,0c0-1.1,0-2,0-3c1,0,1.9,0,2.9,0C87.3,39.5,87.3,40.4,87.3,41.4z" class="st0"/><path d="M70.8,34.6c5.9,0,11.7-0.1,17.6,0c1.8,0,2.5-0.7,2.4-2.6c-0.1-1.9,0-3.8,0-5.7c0-1.5-0.6-2.2-2-2.2 c-11.9,0-23.9,0-35.8,0c-1.2,0-1.9,0.5-1.9,1.9c0,2.3,0,4.5,0,6.8c0,1.5,0.8,1.9,2.1,1.9C59.1,34.6,65,34.6,70.8,34.6 C70.8,34.6,70.8,34.6,70.8,34.6z M87.3,30.9c-1.1,0-2,0-2.8,0c0-1.1,0-2.1,0-3.1c1,0,1.9,0,2.8,0C87.3,28.9,87.3,29.9,87.3,30.9z" class="st0"/><path d="M70.9,45.1c-5.8,0-11.6,0.1-17.4,0c-1.7,0-2.2,0.7-2.2,2.4c0.1,2,0,4.1,0,6.1c0,1.3,0.5,1.9,1.8,1.9 c12,0,24,0,36,0.1c1.3,0,1.8-0.7,1.8-2c0-2.2,0-4.4,0-6.5c0-1.6-0.9-2-2.2-2C82.7,45.1,76.8,45.1,70.9,45.1L70.9,45.1z M87.3,48.7 c0,1.2,0,2.2,0,3.2c-1,0-1.9,0-2.8,0c0-1.1,0-2.1,0-3.2C85.4,48.7,86.2,48.7,87.3,48.7z" class="st0"/><line x1="80.3" x2="55.7" y1="18.9" y2="18.9" class="st1"/><line x1="80.3" x2="55.7" y1="29.4" y2="29.4" class="st1"/><line x1="80.3" x2="55.7" y1="39.6" y2="39.6" class="st1"/><line x1="80.3" x2="55.7" y1="50.1" y2="50.1" class="st1"/><g><path d="M20,49.8h-7.4c-5.3,0-9.6-4.3-9.6-9.6c0-4.9,3.6-8.9,8.4-9.5C12,24,17.7,18.7,24.6,18.7 c1.2,0,2.4,0.2,3.6,0.5c3.2-4.3,8.1-6.8,13.5-6.8c9.3,0,16.8,7.5,16.8,16.8c0,0.8-0.1,1.5-0.2,2.3c3.4,1.5,5.6,5,5.6,8.7 c0,5.3-4.3,9.6-9.6,9.6H51" class="st2"/><rect width="9" height="9" x="24.2" y="35.4" class="st3"/><rect width="9" height="9" x="37.4" y="35.4" class="st3"/><rect width="9" height="9" x="24.1" y="48.7" class="st3"/><rect width="9" height="9" x="37.3" y="48.7" class="st3"/></g></g></svg>