<svg xmlns="http://www.w3.org/2000/svg" xmlns:xlink="http://www.w3.org/1999/xlink" id="Layer_1" x="0" y="0" version="1.1" viewBox="0 0 110 70" xml:space="preserve" style="enable-background:new 0 0 110 70"><style type="text/css">.st0,.st1{fill:none;stroke:#212a32;stroke-miterlimit:10}.st1{stroke:#ff7300}.st2{fill:#212a32}</style><g><circle cx="12.9" cy="35" r="9" class="st0"/><circle cx="97.1" cy="35" r="9" class="st0"/><line x1="29" x2="21.9" y1="35" y2="35" class="st0"/><line x1="88.1" x2="81" y1="35" y2="35" class="st0"/><g><path d="M36.4,15c0,0-5-1-4.8,5.1c0.1,3.6,1.4,6.3,0.5,10.5C31,35.5,27.7,35,27.7,35" class="st1"/><path d="M36.4,55c0,0-5,1-4.8-5.1c0.1-3.6,1.4-6.3,0.5-10.5C31,34.5,27.7,35,27.7,35" class="st1"/></g><g><path d="M73.6,15c0,0,5-1,4.8,5.1c-0.1,3.6-1.4,6.3-0.5,10.5c1.1,4.9,4.4,4.4,4.4,4.4" class="st1"/><path d="M73.6,55c0,0,5,1,4.8-5.1c-0.1-3.6-1.4-6.3-0.5-10.5c1.1-4.9,4.4-4.4,4.4-4.4" class="st1"/></g><g><path d="M41.6,36.8h-2.1V41h-1.9V30.1h3.8c1.3,0,2.2,0.3,2.9,0.8c0.7,0.6,1,1.4,1,2.5c0,0.7-0.2,1.3-0.5,1.8 c-0.4,0.5-0.8,0.9-1.5,1.1l2.5,4.6V41h-2L41.6,36.8z M39.5,35.3h2c0.6,0,1.1-0.2,1.5-0.5c0.4-0.3,0.5-0.8,0.5-1.3 c0-0.6-0.2-1-0.5-1.4c-0.3-0.3-0.8-0.5-1.5-0.5h-2V35.3z" class="st2"/><path d="M53.8,36.1h-4.5v3.4h5.3V41h-7.2V30.1h7.1v1.5h-5.2v3h4.5V36.1z" class="st2"/><path d="M62,38.2c0-0.5-0.2-0.9-0.5-1.1s-0.9-0.5-1.8-0.8c-0.9-0.3-1.6-0.6-2.1-0.9c-1-0.6-1.5-1.4-1.5-2.4 c0-0.9,0.4-1.6,1.1-2.2s1.7-0.9,2.8-0.9c0.8,0,1.4,0.1,2,0.4c0.6,0.3,1.1,0.7,1.4,1.2c0.3,0.5,0.5,1.1,0.5,1.7H62 c0-0.6-0.2-1-0.5-1.3c-0.4-0.3-0.9-0.5-1.5-0.5c-0.6,0-1.1,0.1-1.4,0.4c-0.3,0.3-0.5,0.6-0.5,1.1c0,0.4,0.2,0.7,0.6,1 c0.4,0.3,1,0.5,1.8,0.8c0.9,0.3,1.5,0.5,2.1,0.9c0.5,0.3,0.9,0.7,1.1,1.1c0.2,0.4,0.4,0.9,0.4,1.5c0,0.9-0.3,1.6-1,2.2 c-0.7,0.5-1.6,0.8-2.8,0.8c-0.8,0-1.5-0.1-2.2-0.4c-0.7-0.3-1.2-0.7-1.5-1.2c-0.4-0.5-0.6-1.1-0.6-1.8h1.9c0,0.6,0.2,1.1,0.6,1.4 c0.4,0.3,1,0.5,1.8,0.5c0.7,0,1.2-0.1,1.5-0.4C61.8,39,62,38.6,62,38.2z" class="st2"/><path d="M73.6,31.6h-3.4V41h-1.9v-9.4h-3.4v-1.5h8.7V31.6z" class="st2"/></g></g></svg>