<svg xmlns="http://www.w3.org/2000/svg" xmlns:xlink="http://www.w3.org/1999/xlink" id="Layer_1" x="0" y="0" version="1.1" viewBox="0 0 110 70" xml:space="preserve" style="enable-background:new 0 0 110 70"><style type="text/css">.st0,.st1{fill:none;stroke:#212a32;stroke-miterlimit:10}.st1{stroke:#ff7300}.st2{fill:#ff7300}</style><g><circle cx="12.9" cy="35.2" r="9" class="st0"/><circle cx="97.1" cy="35.2" r="9" class="st0"/><line x1="30.9" x2="21.9" y1="35.2" y2="35.2" class="st0"/><line x1="88.1" x2="79.4" y1="35.2" y2="35.2" class="st0"/><g><g><path d="M39.1,51.1C35,47,32.4,41.3,32.4,35c0-12.5,10.2-22.8,22.8-22.8c2.3,0,4.6,0.4,6.7,1" class="st1"/><g><polygon points="59 16.8 67.4 15.8 62.4 9" class="st2"/></g></g></g><g><g><path d="M75,23.9c1.8,3.3,2.9,7.1,2.9,11.1c0,12.5-10.2,22.8-22.8,22.8c-0.6,0-1.1,0-1.6-0.1" class="st1"/><g><polygon points="55.5 53.6 47.5 56.4 54 61.9" class="st2"/></g></g></g><circle cx="55.2" cy="35" r="15.8" class="st0"/></g></svg>