<svg xmlns="http://www.w3.org/2000/svg" xmlns:xlink="http://www.w3.org/1999/xlink" id="Layer_1" x="0" y="0" version="1.1" viewBox="0 0 110 70" xml:space="preserve" style="enable-background:new 0 0 110 70"><style type="text/css">.st0,.st1{fill:none;stroke:#ff7300;stroke-miterlimit:10}.st1{stroke:#212a32}</style><g><line x1="64.5" x2="75.5" y1="35" y2="35" class="st0"/><circle cx="12.9" cy="35" r="9" class="st1"/><line x1="33" x2="21.9" y1="35" y2="35" class="st1"/><g><path d="M100.1,24.1c0-1.9-5.5-3.5-12.3-3.5c-6.8,0-12.3,1.6-12.3,3.5c0,0,0,0,0,0h0v21.7c0,1.9,5.5,3.5,12.3,3.5 c6.8,0,12.3-1.6,12.3-3.5V24.1L100.1,24.1C100.1,24.1,100.1,24.1,100.1,24.1z" class="st1"/><path d="M75.5,31.6c0,1.9,5.5,3.5,12.3,3.5s12.3-1.6,12.3-3.5" class="st1"/><path d="M100.1,38.9c0,1.9-5.5,3.5-12.3,3.5s-12.3-1.6-12.3-3.5" class="st1"/><ellipse cx="87.8" cy="24.1" class="st1" rx="12.3" ry="3.5"/></g><circle cx="48.7" cy="35" r="15.8" class="st1"/></g></svg>