<svg xmlns="http://www.w3.org/2000/svg" xmlns:xlink="http://www.w3.org/1999/xlink" id="Layer_1" x="0" y="0" version="1.1" viewBox="0 0 110 70" xml:space="preserve" style="enable-background:new 0 0 110 70"><style type="text/css">.st0{fill-rule:evenodd;clip-rule:evenodd;fill:none;stroke-miterlimit:10}.st0,.st1,.st2{stroke:#212a32}.st1,.st2,.st3{stroke-miterlimit:10}.st1{fill-rule:evenodd;clip-rule:evenodd;fill:none;stroke-linecap:round}.st2{fill:#fff}.st3{fill-rule:evenodd;clip-rule:evenodd;fill:none;stroke:#ff7300}</style><g><g><circle cx="69.6" cy="22.1" r="2.8" class="st0"/><circle cx="77.8" cy="36.4" r="2.8" class="st0"/><circle cx="61.3" cy="36.4" r="2.8" class="st0"/><path d="M76.2,26.2c0.7-1.2,1.2-2.6,1.2-4.1c0-4.3-3.5-7.8-7.8-7.8s-7.8,3.5-7.8,7.8c0,2.9,1.6,5.4,3.9,6.8L62.7,34" class="st1"/><path d="M71.1,40.4c1.4,2.3,3.9,3.8,6.7,3.8c4.3,0,7.8-3.5,7.8-7.8s-3.5-7.8-7.8-7.8c-1.4,0-2.8,0.4-3.9,1.1L71,24.5" class="st1"/><path d="M61.3,28.6c-4.3,0-7.8,3.5-7.8,7.8s3.5,7.8,7.8,7.8s7.8-3.5,7.8-7.8l0,0H75" class="st1"/></g><g><path d="M32.5,19.2c-4.2,6.9-1.1,17.6-4.9,21.5c-2.1,2.2-3.8,3.2-4.8,3.6c-0.8,0.3-1.3,1.1-1.3,1.9l0,1.2 c0,0.9,0.7,1.6,1.6,1.6h36.7c0.9,0,1.6-0.7,1.6-1.6l0-1.2c0-0.9-0.5-1.6-1.3-1.9c-1-0.4-2.2-0.1-4.8-2.9c-4-4.4-0.7-15.4-4.9-22.2 c-3-4.8-9-4.2-9-4.2S35.4,14.4,32.5,19.2z" class="st2"/><path d="M47.6,49.5c0,3.5-2.8,6.2-6.2,6.2c-3.5,0-6.2-2.8-6.2-6.2" class="st2"/></g><g><path d="M13.8,49.1c-5.4-3.9-8.9-10.2-8.9-17.2c0-6.8,3.2-12.9,8.2-16.8" class="st3"/><path d="M18.3,43.5c-3.8-2.5-6.2-6.8-6.2-11.7c0-4.5,2.2-8.6,5.5-11.2" class="st3"/><path d="M21.5,38.8c-2.2-1.5-3.7-4.1-3.7-7c0-2.7,1.3-5.1,3.3-6.7" class="st3"/></g></g></svg>