<svg xmlns="http://www.w3.org/2000/svg" xmlns:xlink="http://www.w3.org/1999/xlink" id="Layer_1" x="0" y="0" version="1.1" viewBox="0 0 110 70" xml:space="preserve" style="enable-background:new 0 0 110 70"><style type="text/css">.st0{stroke:#ff7300;stroke-linejoin:round;stroke-miterlimit:10}.st0,.st1,.st2{fill:none}.st2{stroke:#465867;stroke-miterlimit:10}.st3{fill:#465867}</style><g><polygon points="53.6 25.5 8.3 25.5 25.8 40 25.8 52.2 36.1 51.3 36.1 40" class="st0"/><g><line x1="11.7" x2="11.7" y1="8.4" y2="22.4" class="st1"/><g><line x1="11.7" x2="11.7" y1="8.4" y2="21" class="st2"/><g><polygon points="6.5 16.8 7.4 16 11.7 20.6 16 16 16.9 16.8 11.7 22.4" class="st3"/></g></g></g><g><line x1="30.9" x2="30.9" y1="8.4" y2="22.4" class="st1"/><g><line x1="30.9" x2="30.9" y1="8.4" y2="21" class="st2"/><g><polygon points="25.7 16.8 26.7 16 30.9 20.6 35.1 16 36.1 16.8 30.9 22.4" class="st3"/></g></g></g><g><line x1="50.1" x2="50.1" y1="8.4" y2="22.4" class="st1"/><g><line x1="50.1" x2="50.1" y1="8.4" y2="21" class="st2"/><g><polygon points="44.9 16.8 45.9 16 50.1 20.6 54.4 16 55.3 16.8 50.1 22.4" class="st3"/></g></g></g><g><line x1="30.9" x2="30.9" y1="39.8" y2="61.6" class="st1"/><g><line x1="30.9" x2="30.9" y1="39.8" y2="60.2" class="st2"/><g><polygon points="25.8 56 26.7 55.1 30.9 59.7 35.2 55.1 36.1 56 30.9 61.6" class="st3"/></g></g></g></g></svg>