<svg xmlns="http://www.w3.org/2000/svg" xmlns:xlink="http://www.w3.org/1999/xlink" id="Layer_1" x="0" y="0" version="1.1" viewBox="0 0 110 70" xml:space="preserve" style="enable-background:new 0 0 110 70"><style type="text/css">.st0{fill:none;stroke:#ff7300;stroke-miterlimit:10}.st1{fill:#ff7300}.st2{fill:#fff;stroke:#333;stroke-miterlimit:10}</style><g><g><g><line x1="61.5" x2="45.1" y1="23" y2="23" class="st0"/><g><path d="M54.6,18.2c-0.1,0.2-0.1,0.5,0.2,0.7l6.5,4.1l-6.5,4.1c-0.2,0.1-0.3,0.5-0.2,0.7c0.1,0.2,0.5,0.3,0.7,0.2 l7.1-4.5c0.1-0.1,0.2-0.3,0.2-0.4s-0.1-0.3-0.2-0.4L55.3,18C55.2,18,55.2,18,55.1,18C54.9,18,54.7,18.1,54.6,18.2z" class="st1"/></g></g></g><g><g><line x1="61.5" x2="45.1" y1="35" y2="35" class="st0"/><g><path d="M54.6,30.2c-0.1,0.2-0.1,0.5,0.2,0.7l6.5,4.1l-6.5,4.1c-0.2,0.1-0.3,0.5-0.2,0.7c0.1,0.2,0.5,0.3,0.7,0.2 l7.1-4.5c0.1-0.1,0.2-0.3,0.2-0.4s-0.1-0.3-0.2-0.4L55.3,30C55.2,30,55.2,30,55.1,30C54.9,30,54.7,30.1,54.6,30.2z" class="st1"/></g></g></g><g><circle cx="22.6" cy="35" r="18" class="st2"/><polyline points="38.2 18.7 22.6 38 14 29.5" class="st0"/><line x1="22.6" x2="22.6" y1="48" y2="53" class="st2"/><line x1="22.6" x2="22.6" y1="17" y2="22" class="st2"/><line x1="9.6" x2="4.6" y1="35" y2="35" class="st2"/><line x1="40.6" x2="35.6" y1="35" y2="35" class="st2"/></g><g><g><line x1="61.5" x2="45.1" y1="47.5" y2="47.5" class="st0"/><g><path d="M54.6,42.7c-0.1,0.2-0.1,0.5,0.2,0.7l6.5,4.1l-6.5,4.1c-0.2,0.1-0.3,0.5-0.2,0.7c0.1,0.2,0.5,0.3,0.7,0.2 l7.1-4.5c0.1-0.1,0.2-0.3,0.2-0.4s-0.1-0.3-0.2-0.4l-7.1-4.5c-0.1-0.1-0.2-0.1-0.3-0.1C54.9,42.5,54.7,42.6,54.6,42.7z" class="st1"/></g></g></g></g></svg>