<svg xmlns="http://www.w3.org/2000/svg" xmlns:xlink="http://www.w3.org/1999/xlink" id="Layer_1" x="0" y="0" version="1.1" viewBox="0 0 110 70" xml:space="preserve" style="enable-background:new 0 0 110 70"><style type="text/css">.st0{stroke:#212a32;stroke-miterlimit:10}.st0,.st1{fill:#fff}.st1,.st2{stroke-miterlimit:10}.st1,.st2{stroke:#ff7300}.st2{fill:none}.st3{fill:#ff7300}</style><g><g><g><circle cx="16.3" cy="19.7" r="8.5" class="st0"/><path d="M14.8,11.4c0,0,0.3,3.2,1.6,4.8c3.1,4,8.5,3.5,8.5,3.5" class="st0"/><path d="M14.8,15.1c0,0-0.5,1.4-3,3c-2,1.2-4,0.4-4,0.4" class="st0"/><path d="M2.5,44.3c0,2.3,6.2,4.1,13.8,4.1s13.8-1.8,13.8-4.1c0-0.1,0-0.2,0-0.2" class="st0"/><path d="M30.1,44.1c-0.4-9.4-3.7-14.8-13.8-14.8c-10,0-13.4,5.4-13.8,14.8c0,0.1,0,0.2,0,0.2" class="st0"/></g></g><circle cx="30.2" cy="46.1" r="12.7" class="st1"/><g><g><line x1="36.3" x2="22.6" y1="46.1" y2="46.1" class="st2"/><g><path d="M28.1,40.4c-0.2,0.3-0.1,0.7,0.2,0.8l7.7,4.9l-7.7,4.9c-0.3,0.2-0.4,0.5-0.2,0.8c0.2,0.3,0.6,0.4,0.8,0.2 l8.5-5.4c0.2-0.1,0.3-0.3,0.3-0.5s-0.1-0.4-0.3-0.5l-8.5-5.4c-0.1-0.1-0.2-0.1-0.3-0.1C28.4,40.1,28.2,40.2,28.1,40.4z" class="st3"/></g></g></g></g></svg>