<svg xmlns="http://www.w3.org/2000/svg" xmlns:xlink="http://www.w3.org/1999/xlink" id="Layer_1" x="0" y="0" version="1.1" viewBox="0 0 110 70" xml:space="preserve" style="enable-background:new 0 0 110 70"><style type="text/css">.st0,.st1{fill:none;stroke:#434343;stroke-miterlimit:7.6792}.st1{stroke:#212a32}.st2{fill:#ff7300}.st3{font-family:&apos;Roboto-Regular&apos;}.st4{font-size:18px}</style><g><path d="M52.2,58.2v2.6c0,1.4-1.3,2.6-3.1,2.6H12.5c-1.7,0-3.1-1.4-3.1-3.1v-22 M9.5,12V9.3c0-1.5,1.3-2.8,3.1-2.8 h36.7c1.7,0,3.1,1.4,3.1,3.1v22.5" class="st0"/><path d="M11.9,19.2L1.7,14.4v9.8L11.9,19.2z M11.9,31.3L1.7,26.6v9.7L11.9,31.3z M59.8,38.6l-10.2-4.9v9.8L59.8,38.6z M59.8,50.7l-10.2-4.9v9.8L59.8,50.7z" class="st1"/><text class="st2 st3 st4" transform="matrix(1 0 0 1 17.4799 40.2605)">&lt;/&gt;</text></g></svg>