<svg xmlns="http://www.w3.org/2000/svg" xmlns:xlink="http://www.w3.org/1999/xlink" id="Layer_1" x="0" y="0" version="1.1" viewBox="0 0 110 70" xml:space="preserve" style="enable-background:new 0 0 110 70"><style type="text/css">.st0{fill:#ff7300}.st1{fill:none;stroke:#212a32;stroke-miterlimit:10}</style><g><g><path d="M41.9,34.5l6.6,2.7v2.1l-8.6-4v-1.5l8.6-4v2.1L41.9,34.5z" class="st0"/><path d="M52.3,42.6h-1.7L57,26h1.7L52.3,42.6z" class="st0"/><path d="M68.1,34.5l-6.9-2.7v-2l9,4v1.5l-9,4v-2L68.1,34.5z" class="st0"/></g><circle cx="12.9" cy="35" r="9" class="st1"/><circle cx="97.1" cy="35" r="9" class="st1"/><line x1="30.9" x2="21.9" y1="35" y2="35" class="st1"/><path d="M74.9,54.8H35.1c-2.3,0-4.2-1.9-4.2-4.2V19.4c0-2.3,1.9-4.2,4.2-4.2h39.7c2.3,0,4.2,1.9,4.2,4.2v31.1 C79.1,52.9,77.2,54.8,74.9,54.8z" class="st1"/><line x1="88.1" x2="79.4" y1="35" y2="35" class="st1"/></g></svg>